<mxfile host="Electron" agent="Mozilla/5.0 (Windows NT 10.0; Win64; x64) AppleWebKit/537.36 (KHTML, like Gecko) draw.io/26.2.15 Chrome/134.0.6998.205 Electron/35.2.1 Safari/537.36" version="26.2.15">
  <diagram id="C5RBs43oDa-KdzZeNtuy" name="Page-1">
    <mxGraphModel dx="2946" dy="1209" grid="1" gridSize="10" guides="1" tooltips="1" connect="1" arrows="1" fold="1" page="1" pageScale="1" pageWidth="827" pageHeight="1169" math="0" shadow="0" adaptiveColors="none">
      <root>
        <mxCell id="WIyWlLk6GJQsqaUBKTNV-0" />
        <mxCell id="WIyWlLk6GJQsqaUBKTNV-1" parent="WIyWlLk6GJQsqaUBKTNV-0" />
        <mxCell id="0GU9FVYjFVz0X6F0ksyF-1" value="" style="edgeStyle=orthogonalEdgeStyle;rounded=0;orthogonalLoop=1;jettySize=auto;html=1;entryX=0;entryY=0.5;entryDx=0;entryDy=0;" parent="WIyWlLk6GJQsqaUBKTNV-1" source="WIyWlLk6GJQsqaUBKTNV-3" target="0GU9FVYjFVz0X6F0ksyF-4" edge="1">
          <mxGeometry relative="1" as="geometry" />
        </mxCell>
        <mxCell id="WIyWlLk6GJQsqaUBKTNV-3" value="StartPreload" style="rounded=1;whiteSpace=wrap;html=1;fontSize=12;glass=0;strokeWidth=1;shadow=0;fillColor=#d5e8d4;strokeColor=#82b366;" parent="WIyWlLk6GJQsqaUBKTNV-1" vertex="1">
          <mxGeometry x="230" y="430" width="120" height="40" as="geometry" />
        </mxCell>
        <mxCell id="0GU9FVYjFVz0X6F0ksyF-16" style="edgeStyle=orthogonalEdgeStyle;rounded=0;orthogonalLoop=1;jettySize=auto;html=1;exitX=0.5;exitY=1;exitDx=0;exitDy=0;entryX=0.5;entryY=0;entryDx=0;entryDy=0;" parent="WIyWlLk6GJQsqaUBKTNV-1" source="0GU9FVYjFVz0X6F0ksyF-0" target="0GU9FVYjFVz0X6F0ksyF-15" edge="1">
          <mxGeometry relative="1" as="geometry" />
        </mxCell>
        <mxCell id="0GU9FVYjFVz0X6F0ksyF-0" value="尝试加载StreamingAssets中的setting.json" style="whiteSpace=wrap;html=1;rounded=1;glass=0;strokeWidth=1;shadow=0;" parent="WIyWlLk6GJQsqaUBKTNV-1" vertex="1">
          <mxGeometry x="230" y="540" width="120" height="60" as="geometry" />
        </mxCell>
        <mxCell id="0GU9FVYjFVz0X6F0ksyF-6" value="失败" style="edgeStyle=orthogonalEdgeStyle;rounded=0;orthogonalLoop=1;jettySize=auto;html=1;entryX=0.5;entryY=0;entryDx=0;entryDy=0;" parent="WIyWlLk6GJQsqaUBKTNV-1" source="0GU9FVYjFVz0X6F0ksyF-4" target="0GU9FVYjFVz0X6F0ksyF-7" edge="1">
          <mxGeometry relative="1" as="geometry">
            <mxPoint x="579" y="450" as="targetPoint" />
          </mxGeometry>
        </mxCell>
        <mxCell id="0GU9FVYjFVz0X6F0ksyF-9" value="成功" style="edgeStyle=orthogonalEdgeStyle;rounded=0;orthogonalLoop=1;jettySize=auto;html=1;entryX=0.5;entryY=0;entryDx=0;entryDy=0;" parent="WIyWlLk6GJQsqaUBKTNV-1" source="0GU9FVYjFVz0X6F0ksyF-4" target="0GU9FVYjFVz0X6F0ksyF-11" edge="1">
          <mxGeometry relative="1" as="geometry">
            <mxPoint x="445" y="580" as="targetPoint" />
          </mxGeometry>
        </mxCell>
        <mxCell id="0GU9FVYjFVz0X6F0ksyF-4" value="尝试加载内嵌setting.json" style="rhombus;whiteSpace=wrap;html=1;" parent="WIyWlLk6GJQsqaUBKTNV-1" vertex="1">
          <mxGeometry x="405" y="410" width="80" height="80" as="geometry" />
        </mxCell>
        <mxCell id="0GU9FVYjFVz0X6F0ksyF-17" style="edgeStyle=orthogonalEdgeStyle;rounded=0;orthogonalLoop=1;jettySize=auto;html=1;exitX=0.5;exitY=1;exitDx=0;exitDy=0;entryX=0.5;entryY=0;entryDx=0;entryDy=0;" parent="WIyWlLk6GJQsqaUBKTNV-1" source="0GU9FVYjFVz0X6F0ksyF-7" target="0GU9FVYjFVz0X6F0ksyF-18" edge="1">
          <mxGeometry relative="1" as="geometry" />
        </mxCell>
        <mxCell id="0GU9FVYjFVz0X6F0ksyF-7" value="更新网络setting.json" style="rounded=1;whiteSpace=wrap;html=1;" parent="WIyWlLk6GJQsqaUBKTNV-1" vertex="1">
          <mxGeometry x="560" y="540" width="120" height="60" as="geometry" />
        </mxCell>
        <mxCell id="0GU9FVYjFVz0X6F0ksyF-13" value="是" style="edgeStyle=orthogonalEdgeStyle;rounded=0;orthogonalLoop=1;jettySize=auto;html=1;entryX=1;entryY=0.5;entryDx=0;entryDy=0;" parent="WIyWlLk6GJQsqaUBKTNV-1" source="0GU9FVYjFVz0X6F0ksyF-11" target="0GU9FVYjFVz0X6F0ksyF-0" edge="1">
          <mxGeometry relative="1" as="geometry">
            <mxPoint x="445" y="740" as="targetPoint" />
          </mxGeometry>
        </mxCell>
        <mxCell id="0GU9FVYjFVz0X6F0ksyF-14" value="否" style="edgeStyle=orthogonalEdgeStyle;rounded=0;orthogonalLoop=1;jettySize=auto;html=1;exitX=1;exitY=0.5;exitDx=0;exitDy=0;entryX=0;entryY=0.5;entryDx=0;entryDy=0;" parent="WIyWlLk6GJQsqaUBKTNV-1" source="0GU9FVYjFVz0X6F0ksyF-11" target="0GU9FVYjFVz0X6F0ksyF-7" edge="1">
          <mxGeometry relative="1" as="geometry" />
        </mxCell>
        <mxCell id="0GU9FVYjFVz0X6F0ksyF-11" value="内嵌setting.json是否标记不用热更" style="rhombus;whiteSpace=wrap;html=1;" parent="WIyWlLk6GJQsqaUBKTNV-1" vertex="1">
          <mxGeometry x="405" y="530" width="80" height="80" as="geometry" />
        </mxCell>
        <mxCell id="0GU9FVYjFVz0X6F0ksyF-25" style="edgeStyle=orthogonalEdgeStyle;rounded=0;orthogonalLoop=1;jettySize=auto;html=1;exitX=0.5;exitY=1;exitDx=0;exitDy=0;entryX=0.5;entryY=0;entryDx=0;entryDy=0;" parent="WIyWlLk6GJQsqaUBKTNV-1" source="0GU9FVYjFVz0X6F0ksyF-15" target="0GU9FVYjFVz0X6F0ksyF-26" edge="1">
          <mxGeometry relative="1" as="geometry">
            <mxPoint x="565" y="1220" as="targetPoint" />
          </mxGeometry>
        </mxCell>
        <mxCell id="0GU9FVYjFVz0X6F0ksyF-15" value="按照setting.json初始Runtime" style="rounded=1;whiteSpace=wrap;html=1;" parent="WIyWlLk6GJQsqaUBKTNV-1" vertex="1">
          <mxGeometry x="195" y="650" width="190" height="60" as="geometry" />
        </mxCell>
        <mxCell id="0GU9FVYjFVz0X6F0ksyF-20" value="" style="edgeStyle=orthogonalEdgeStyle;rounded=0;orthogonalLoop=1;jettySize=auto;html=1;" parent="WIyWlLk6GJQsqaUBKTNV-1" source="0GU9FVYjFVz0X6F0ksyF-18" target="0GU9FVYjFVz0X6F0ksyF-19" edge="1">
          <mxGeometry relative="1" as="geometry" />
        </mxCell>
        <mxCell id="0GU9FVYjFVz0X6F0ksyF-18" value="按照setting.json初始Runtime" style="rounded=1;whiteSpace=wrap;html=1;" parent="WIyWlLk6GJQsqaUBKTNV-1" vertex="1">
          <mxGeometry x="525" y="650" width="190" height="60" as="geometry" />
        </mxCell>
        <mxCell id="0GU9FVYjFVz0X6F0ksyF-22" value="" style="edgeStyle=orthogonalEdgeStyle;rounded=0;orthogonalLoop=1;jettySize=auto;html=1;" parent="WIyWlLk6GJQsqaUBKTNV-1" source="0GU9FVYjFVz0X6F0ksyF-19" target="0GU9FVYjFVz0X6F0ksyF-21" edge="1">
          <mxGeometry relative="1" as="geometry" />
        </mxCell>
        <mxCell id="0GU9FVYjFVz0X6F0ksyF-19" value="客户端更新检查" style="whiteSpace=wrap;html=1;rounded=1;" parent="WIyWlLk6GJQsqaUBKTNV-1" vertex="1">
          <mxGeometry x="560" y="760" width="120" height="60" as="geometry" />
        </mxCell>
        <mxCell id="0GU9FVYjFVz0X6F0ksyF-24" value="" style="edgeStyle=orthogonalEdgeStyle;rounded=0;orthogonalLoop=1;jettySize=auto;html=1;entryX=1;entryY=0.5;entryDx=0;entryDy=0;" parent="WIyWlLk6GJQsqaUBKTNV-1" source="0GU9FVYjFVz0X6F0ksyF-21" target="0GU9FVYjFVz0X6F0ksyF-26" edge="1">
          <mxGeometry relative="1" as="geometry">
            <mxPoint x="565" y="970" as="targetPoint" />
          </mxGeometry>
        </mxCell>
        <mxCell id="0GU9FVYjFVz0X6F0ksyF-21" value="res.json更新检查" style="whiteSpace=wrap;html=1;rounded=1;" parent="WIyWlLk6GJQsqaUBKTNV-1" vertex="1">
          <mxGeometry x="560" y="850" width="120" height="60" as="geometry" />
        </mxCell>
        <mxCell id="0GU9FVYjFVz0X6F0ksyF-28" style="edgeStyle=orthogonalEdgeStyle;rounded=0;orthogonalLoop=1;jettySize=auto;html=1;exitX=0.5;exitY=1;exitDx=0;exitDy=0;entryX=0.5;entryY=0;entryDx=0;entryDy=0;" parent="WIyWlLk6GJQsqaUBKTNV-1" source="0GU9FVYjFVz0X6F0ksyF-26" target="0GU9FVYjFVz0X6F0ksyF-27" edge="1">
          <mxGeometry relative="1" as="geometry" />
        </mxCell>
        <mxCell id="0GU9FVYjFVz0X6F0ksyF-29" value="NO" style="edgeLabel;html=1;align=center;verticalAlign=middle;resizable=0;points=[];" parent="0GU9FVYjFVz0X6F0ksyF-28" vertex="1" connectable="0">
          <mxGeometry x="-0.2182" y="3" relative="1" as="geometry">
            <mxPoint as="offset" />
          </mxGeometry>
        </mxCell>
        <mxCell id="0GU9FVYjFVz0X6F0ksyF-31" value="" style="edgeStyle=orthogonalEdgeStyle;rounded=0;orthogonalLoop=1;jettySize=auto;html=1;" parent="WIyWlLk6GJQsqaUBKTNV-1" source="0GU9FVYjFVz0X6F0ksyF-26" target="0GU9FVYjFVz0X6F0ksyF-30" edge="1">
          <mxGeometry relative="1" as="geometry" />
        </mxCell>
        <mxCell id="0GU9FVYjFVz0X6F0ksyF-26" value="项目是否使用代码热更" style="rhombus;whiteSpace=wrap;html=1;" parent="WIyWlLk6GJQsqaUBKTNV-1" vertex="1">
          <mxGeometry x="250" y="840" width="80" height="80" as="geometry" />
        </mxCell>
        <mxCell id="0GU9FVYjFVz0X6F0ksyF-27" value="ILBridge启动脚本" style="rounded=1;whiteSpace=wrap;html=1;fillColor=#f8cecc;strokeColor=#b85450;" parent="WIyWlLk6GJQsqaUBKTNV-1" vertex="1">
          <mxGeometry x="230" y="980" width="120" height="60" as="geometry" />
        </mxCell>
        <mxCell id="0GU9FVYjFVz0X6F0ksyF-32" style="edgeStyle=orthogonalEdgeStyle;rounded=0;orthogonalLoop=1;jettySize=auto;html=1;exitX=0.5;exitY=1;exitDx=0;exitDy=0;entryX=0;entryY=0.5;entryDx=0;entryDy=0;" parent="WIyWlLk6GJQsqaUBKTNV-1" source="0GU9FVYjFVz0X6F0ksyF-30" target="0GU9FVYjFVz0X6F0ksyF-27" edge="1">
          <mxGeometry relative="1" as="geometry" />
        </mxCell>
        <mxCell id="0GU9FVYjFVz0X6F0ksyF-30" value="加载Dll文件" style="whiteSpace=wrap;html=1;" parent="WIyWlLk6GJQsqaUBKTNV-1" vertex="1">
          <mxGeometry x="60" y="850" width="120" height="60" as="geometry" />
        </mxCell>
        <mxCell id="CE5bHnbImw-FEuCOfar4-0" value="&lt;h1&gt;写一个StreamingAssetsPreload.cs&lt;/h1&gt;&lt;p&gt;把项目启动需要的数据直接加载了&lt;/p&gt;&lt;p&gt;- DLL（bytes[])&lt;/p&gt;&lt;p&gt;- Res.json（ResVerVO）&lt;/p&gt;&lt;p&gt;- Setting.json（SettingVO）&lt;/p&gt;" style="text;html=1;strokeColor=none;fillColor=none;spacing=5;spacingTop=-20;whiteSpace=wrap;overflow=hidden;rounded=0;" parent="WIyWlLk6GJQsqaUBKTNV-1" vertex="1">
          <mxGeometry x="25" y="10" width="515" height="160" as="geometry" />
        </mxCell>
      </root>
    </mxGraphModel>
  </diagram>
</mxfile>
